<?xml version="1.0" encoding="UTF-8"?>
<svg id="Layer_1" xmlns="http://www.w3.org/2000/svg" version="1.1" viewBox="0 0 48 48">
  <!-- Generator: Adobe Illustrator 29.1.0, SVG Export Plug-In . SVG Version: 2.1.0 Build 142)  -->
  <defs>
    <style>
      .st0 {
        fill: #fff;
        stroke: #000;
        stroke-miterlimit: 10;
        stroke-width: 1.5px;
      }
    </style>
  </defs>
  <path class="st0" d="M44.9,23.5L25.2,6.3c-.3-.2-.6-.4-1-.4h-9.4c-5.8,0-10.6,4.7-10.6,10.6v15c0,5.8,4.7,10.6,10.6,10.6h9.8c.4,0,.7,0,1-.4h.1l19.2-17.3c.3-.2.3-.7,0-.9ZM16.4,27.1c0,.8-.7,1.3-1.5,1.2-1.8-.3-3.3-.8-4.3-1.6-1.3-1-1.9-2.4-1.9-4.2s.7-3.1,2.2-4.2c1.5-1.1,3.5-1.7,6.1-2,1.3-.1,2.2-.3,2.8-.7.6-.3.9-.8.9-1.4s-.4-1.5-1.2-1.9c-.6-.3-1.6-.6-3-.8-.7,0-1.1-.7-1.1-1.4,0-.8.8-1.3,1.5-1.2,1.9.3,3.3.8,4.4,1.6,1.3.9,2,2.1,2,3.7s-.5,2.4-1.6,3.2c-1.1.8-2.6,1.3-4.5,1.5-2,.1-3.4.5-4.4,1.1-1,.6-1.5,1.4-1.5,2.5s.4,1.8,1.3,2.3c.7.4,1.6.7,2.8.9.7,0,1.1.7,1.1,1.3h0ZM36.2,23.3l-13,12.9-5.2,1.1c-.4,0-.7,0-1-.3s-.4-.6-.3-1l1.1-5.2,13-12.9c.3-.3.6-.5,1-.4s.7.2,1,.4l3.3,3.3c.3.3.5.7.5,1s-.2.7-.5,1Z"/>
  <path class="st0" d="M22.4,31.2l.4.4c.5.5,1.3.5,1.8,0l8.4-8.4c.5-.5.5-1.3,0-1.8l-.4-.4c-.5-.5-1.3-.5-1.8,0l-8.4,8.4c-.5.5-.5,1.3,0,1.8Z"/>
</svg>