<svg xmlns="http://www.w3.org/2000/svg" height="40" viewBox="0 -960 960 960" fill="#ffffff" width="40"><path d="m788.348-119.007-258.16-258.022q-29.282 24.857-68.635 38.215-39.353 13.357-83.156 13.357-108.384 0-183.543-75.157-75.159-75.158-75.159-182.022 0-106.864 74.976-182.053 74.976-75.188 182.355-75.188 107.38 0 182.235 75.197 74.855 75.197 74.855 182.219 0 42.939-13.435 81.997t-38.804 71.75l258.928 257.33-52.457 52.377Zm-410.719-278.87q76.936 0 130.502-53.894 53.565-53.894 53.565-130.935t-53.589-130.896q-53.589-53.855-130.645-53.855-77.612 0-131.479 53.895-53.867 53.894-53.867 130.934 0 77.041 53.871 130.896 53.872 53.855 131.642 53.855Z"/></svg>