<svg xmlns="http://www.w3.org/2000/svg" height="48px" viewBox="0 -960 960 960" width="48px" fill="#FFFFFF"><path d="m462.47-330.35 97.26-96.88 97.26 96.88 53.06-53.06L612.5-480l96.22-96.59-53.06-53.44-95.93 97.26-97.26-97.26-53.43 53.44L506.96-480l-97.92 96.59 53.43 53.06ZM360.15-150.84q-20.93 0-38.86-9.08-17.92-9.08-29.52-25.11L70.84-479.83 291.11-774.8q11.6-16.21 29.52-25.39t38.86-9.18h445.52q35.72 0 60.46 24.73 24.73 24.74 24.73 60.46v488.53q0 35.56-24.73 60.19-24.74 24.62-60.46 24.62H360.15Zm-183.6-328.99 182.61 244.74h446.42v-489.66H359.4L176.55-479.83Zm406.62-.17Z"/></svg>